<svg width="176" height="25" viewBox="0 0 176 25" fill="none" xmlns="http://www.w3.org/2000/svg">
<path d="M0.675 10.499C0.675 15.574 4.625 19.449 9.85 19.449C12.4 19.449 15.075 18.224 16.925 16.324L14.6 13.799C13.35 15.049 11.625 15.849 10.05 15.849C7.05 15.849 4.725 13.499 4.725 10.449C4.725 7.39899 7.05 5.07399 10.05 5.07399C11.675 5.07399 13.4 5.97399 14.6 7.34899L16.9 4.54899C15.175 2.77399 12.525 1.64899 10 1.64899C4.7 1.64899 0.675 5.44899 0.675 10.499ZM17.7166 12.549C17.7166 16.649 20.6166 19.424 24.9416 19.424C29.2416 19.424 32.1416 16.649 32.1416 12.549C32.1416 8.42399 29.2416 5.69899 24.9416 5.69899C20.6166 5.69899 17.7166 8.42399 17.7166 12.549ZM21.5916 12.599C21.5916 10.399 22.9416 8.89899 24.9416 8.89899C26.9166 8.89899 28.2916 10.399 28.2916 12.599C28.2916 14.799 26.9166 16.299 24.9416 16.299C22.9416 16.299 21.5916 14.799 21.5916 12.599ZM34.6869 19.274H38.5369V12.799C38.5369 10.524 40.2369 9.04899 42.9869 9.29899V5.67399C40.9869 5.69899 39.4619 6.59899 38.5369 8.24899V5.82399H34.6869V19.274ZM45.2123 24.124H49.0623V17.324C50.0373 18.674 51.5123 19.424 53.3873 19.424C57.1623 19.424 59.6373 16.699 59.6373 12.624C59.6373 8.47399 57.0873 5.69899 53.3123 5.69899C51.4873 5.69899 50.0123 6.44899 49.0623 7.79899V5.82399H45.2123V24.124ZM49.0623 12.499C49.0623 10.324 50.4373 8.79899 52.4123 8.79899C54.3873 8.79899 55.7373 10.349 55.7373 12.499C55.7373 14.699 54.3873 16.224 52.4123 16.224C50.4373 16.224 49.0623 14.724 49.0623 12.499ZM61.0271 12.599C61.0271 16.674 63.7521 19.424 68.0521 19.424C70.4771 19.424 72.4521 18.549 73.8021 17.049L71.7771 14.999C70.8521 15.924 69.6521 16.424 68.3771 16.424C66.6521 16.424 65.3521 15.424 64.9021 13.724H74.5521C74.8771 8.82399 72.6771 5.69899 67.9521 5.69899C63.8521 5.69899 61.0271 8.44899 61.0271 12.599ZM64.8271 11.449C65.1271 9.67399 66.2771 8.52399 67.9771 8.52399C69.7521 8.52399 70.9021 9.67399 70.9521 11.449H64.8271ZM77.0941 19.274H80.9441V12.799C80.9441 10.524 82.6441 9.04899 85.3941 9.29899V5.67399C83.3941 5.69899 81.8691 6.59899 80.9441 8.24899V5.82399H77.0941V19.274ZM86.0945 17.549C87.6195 18.774 89.7445 19.424 91.9195 19.424C94.9695 19.424 97.3945 17.974 97.3945 15.224C97.4195 10.474 90.3195 11.499 90.3195 9.47399C90.3195 8.77399 90.9695 8.47399 91.8695 8.47399C92.9945 8.47399 94.4945 8.94899 95.9695 9.77399L97.2945 7.14899C95.7945 6.19899 93.8945 5.64899 92.0445 5.64899C89.1195 5.64899 86.7445 7.07399 86.7445 9.84899C86.7445 14.574 93.7195 13.424 93.7195 15.574C93.7195 16.299 92.9945 16.624 92.0195 16.624C90.5445 16.624 88.7445 16.024 87.3445 14.949L86.0945 17.549Z" fill="#190E2C"/>
<path d="M106.125 19.274H109.975V0.723986H106.125V19.274ZM112.687 12.549C112.687 16.649 115.587 19.424 119.912 19.424C124.212 19.424 127.112 16.649 127.112 12.549C127.112 8.42399 124.212 5.69899 119.912 5.69899C115.587 5.69899 112.687 8.42399 112.687 12.549ZM116.562 12.599C116.562 10.399 117.912 8.89899 119.912 8.89899C121.887 8.89899 123.262 10.399 123.262 12.599C123.262 14.799 121.887 16.299 119.912 16.299C117.912 16.299 116.562 14.799 116.562 12.599ZM128.508 12.499C128.508 16.649 131.033 19.424 134.858 19.424C136.708 19.424 138.158 18.674 139.108 17.299V19.274H142.933V0.723986H139.108V7.79899C138.133 6.42399 136.658 5.67399 134.758 5.67399C131.008 5.67399 128.508 8.39899 128.508 12.499ZM132.358 12.599C132.383 10.424 133.758 8.87399 135.758 8.87399C137.733 8.87399 139.108 10.399 139.108 12.599C139.108 14.799 137.733 16.324 135.758 16.324C133.733 16.324 132.383 14.799 132.358 12.599ZM145.622 12.074C145.622 15.974 148.022 18.574 151.497 18.574C153.272 18.574 154.647 17.874 155.547 16.624V18.149C155.547 19.974 154.147 21.149 151.947 21.149C150.422 21.149 148.997 20.674 147.772 19.799L146.347 22.499C147.897 23.549 149.922 24.274 152.197 24.274C156.497 24.274 159.372 21.849 159.372 18.024V5.82399H155.547V7.64899C154.622 6.39899 153.222 5.67399 151.397 5.69899C147.972 5.69899 145.622 8.27399 145.622 12.074ZM149.222 12.174C149.247 10.124 150.522 8.67399 152.397 8.67399C154.272 8.67399 155.547 10.099 155.547 12.174C155.547 14.224 154.272 15.649 152.397 15.649C150.497 15.649 149.247 14.224 149.222 12.174ZM161.735 12.599C161.735 16.674 164.46 19.424 168.76 19.424C171.185 19.424 173.16 18.549 174.51 17.049L172.485 14.999C171.56 15.924 170.36 16.424 169.085 16.424C167.36 16.424 166.06 15.424 165.61 13.724H175.26C175.585 8.82399 173.385 5.69899 168.66 5.69899C164.56 5.69899 161.735 8.44899 161.735 12.599ZM165.535 11.449C165.835 9.67399 166.985 8.52399 168.685 8.52399C170.46 8.52399 171.61 9.67399 171.66 11.449H165.535Z" fill="#83370E"/>
</svg>
