<svg width="14" height="15" viewBox="0 0 14 15" fill="none" xmlns="http://www.w3.org/2000/svg">
<path d="M4.23198 3.92866C4.8684 4.00353 5.31764 4.23885 5.77756 4.69878L6.31237 5.23358L4.57426 6.9717C4.74005 7.03587 4.87375 7.11609 4.98605 7.18026C5.18393 7.30327 5.30159 7.37279 5.60108 7.37279C5.90057 7.37279 6.01822 7.30327 6.21611 7.18026C6.46211 7.03587 6.79369 6.83799 7.38732 6.83799C7.98095 6.83799 8.31254 7.03587 8.5532 7.18026C8.75107 7.29793 8.87408 7.37279 9.16822 7.37279C9.46234 7.37279 9.58536 7.30327 9.78327 7.18026C9.8474 7.14284 9.92229 7.10005 10.0025 7.05727L6.56907 3.62917C5.89522 2.95532 5.26415 2.66652 4.3336 2.58631C3.95923 2.55421 3.63835 2.85905 3.63835 3.23342V3.28155C3.63835 3.61848 3.9004 3.88587 4.23198 3.92866ZM12.3823 11.0683C12.2914 11.0362 12.2112 10.9881 12.115 10.9239C11.8744 10.7795 11.5428 10.5816 10.9491 10.5816C10.3555 10.5816 10.0239 10.7795 9.78327 10.9239C9.58536 11.0469 9.46234 11.1164 9.16822 11.1164C8.87408 11.1164 8.75107 11.0415 8.5532 10.9239C8.31254 10.7795 7.98095 10.5816 7.38732 10.5816C6.79369 10.5816 6.46211 10.7795 6.21611 10.9239C6.01822 11.0469 5.90057 11.1164 5.60108 11.1164C5.30159 11.1164 5.18393 11.0469 4.98605 10.9239C4.74539 10.7795 4.41381 10.5816 3.82018 10.5816C3.22655 10.5816 2.89497 10.7795 2.64896 10.9239C2.55269 10.9827 2.47248 11.0308 2.38156 11.0683C2.17833 11.1378 2.03394 11.309 2.03394 11.5229V11.587C2.03394 11.9454 2.38691 12.1913 2.72919 12.0738C2.92706 12.0042 3.07681 11.9133 3.20516 11.8384C3.40303 11.7207 3.52604 11.6513 3.82018 11.6513C4.11432 11.6513 4.23733 11.7207 4.4352 11.8437C4.67587 11.9882 5.00745 12.186 5.60108 12.186C6.19471 12.186 6.52629 11.9882 6.7723 11.8437C6.97018 11.7207 7.08783 11.6513 7.38732 11.6513C7.68146 11.6513 7.80447 11.7261 8.00235 11.8437C8.24301 11.9882 8.57459 12.186 9.16822 12.186C9.76183 12.186 10.0881 11.9882 10.3341 11.8437C10.5319 11.7207 10.6496 11.6513 10.9491 11.6513C11.2433 11.6513 11.3663 11.7261 11.5641 11.8437C11.6871 11.9186 11.8369 12.0095 12.0347 12.0791C12.3717 12.1968 12.73 11.9507 12.73 11.5924V11.5282C12.73 11.309 12.5856 11.1378 12.3823 11.0683ZM2.62757 9.69919C2.87893 9.62967 3.06076 9.52271 3.2105 9.43714C3.40838 9.31413 3.53139 9.24461 3.82553 9.24461C4.11967 9.24461 4.24267 9.31948 4.44056 9.43714C4.68122 9.58154 5.01279 9.77942 5.60642 9.77942C6.20006 9.77942 6.53163 9.58154 6.7723 9.43714C6.97018 9.31413 7.08783 9.24461 7.38732 9.24461C7.68146 9.24461 7.80447 9.31948 8.00235 9.43714C8.24301 9.58154 8.57459 9.77942 9.16822 9.77942C9.76183 9.77942 10.0934 9.58154 10.3341 9.43714C10.5319 9.31413 10.6496 9.24461 10.9491 9.24461C11.2433 9.24461 11.3663 9.31948 11.5641 9.43714C11.6871 9.51201 11.8316 9.59759 12.0187 9.66711C12.0973 9.69547 12.1815 9.70459 12.2643 9.69374C12.3471 9.68288 12.4261 9.65235 12.4947 9.6047C12.5633 9.55705 12.6195 9.49367 12.6585 9.41986C12.6977 9.34605 12.7185 9.26395 12.7193 9.18044V9.11626C12.7193 8.90234 12.5749 8.7312 12.377 8.65632C12.2861 8.62424 12.2059 8.57611 12.1043 8.51728C11.8636 8.37288 11.5321 8.175 10.9384 8.175C10.3448 8.175 10.0132 8.37288 9.7725 8.51728C9.57468 8.64029 9.45167 8.70981 9.15752 8.70981C8.86338 8.70981 8.74038 8.63494 8.5425 8.51728C8.30184 8.37288 7.97026 8.175 7.37663 8.175C6.78299 8.175 6.45142 8.37288 6.21075 8.51728C6.01288 8.64029 5.89522 8.70981 5.59573 8.70981C5.30159 8.70981 5.17858 8.63494 4.98071 8.51728C4.74005 8.37288 4.40846 8.175 3.81483 8.175C3.2212 8.175 2.88962 8.37288 2.64896 8.51728C2.55269 8.57611 2.47248 8.62424 2.38156 8.66168C2.17833 8.7312 2.03394 8.90234 2.03394 9.11626V9.23927C2.03394 9.54945 2.32808 9.78476 2.62757 9.69919Z" fill="#FFA219"/>
<path d="M9.78894 5.23359C10.5273 5.23359 11.1259 4.63499 11.1259 3.89658C11.1259 3.15817 10.5273 2.55957 9.78894 2.55957C9.0505 2.55957 8.4519 3.15817 8.4519 3.89658C8.4519 4.63499 9.0505 5.23359 9.78894 5.23359Z" fill="#FFA219"/>
</svg>
