<svg width="14" height="14" viewBox="0 0 14 14" fill="none" xmlns="http://www.w3.org/2000/svg">
<path d="M9.74974 7.86238L9.11686 7.22951C9.64424 6.70212 9.90798 6.01651 9.90798 5.38364C9.90798 4.69803 9.64424 4.01243 9.11686 3.53777L9.74974 2.9049C10.4354 3.59051 10.8045 4.48707 10.8045 5.38364C10.8045 6.28021 10.4354 7.17678 9.74974 7.86238ZM3.52651 1.63916L4.15938 2.27203C3.31555 3.11586 2.89364 4.27612 2.89364 5.38364C2.89364 6.49117 3.31555 7.65142 4.15938 8.49525L3.52651 9.12812C2.47173 8.07334 1.99707 6.75486 1.99707 5.38364C1.99707 4.01243 2.52446 2.69395 3.52651 1.63916Z" fill="#FFA219"/>
<path d="M10.3829 2.27203L11.0158 1.63916C12.0178 2.69395 12.5452 4.01243 12.5452 5.38364C12.5452 6.75486 12.0178 8.07334 11.0158 9.12812L10.3829 8.49525C11.2267 7.65142 11.6486 6.49117 11.6486 5.38364C11.6486 4.27612 11.2267 3.11586 10.3829 2.27203ZM4.79257 7.86238C4.10697 7.17678 3.73779 6.28021 3.73779 5.38364C3.79053 4.48707 4.10697 3.59051 4.79257 2.9049L5.42544 3.53777C4.89806 4.06516 4.63436 4.75077 4.63436 5.38364C4.63436 6.06925 4.89806 6.75486 5.42544 7.22951L4.79257 7.86238ZM5.95284 5.38364C5.95284 5.03396 6.09175 4.6986 6.33901 4.45133C6.58628 4.20407 6.92163 4.06516 7.27131 4.06516C7.621 4.06516 7.95636 4.20407 8.20362 4.45133C8.45088 4.6986 8.58979 5.03396 8.58979 5.38364C8.58979 5.78446 8.41048 6.13254 8.13097 6.37513L9.90825 11.7123H8.85349L8.50014 10.6576H6.03722L5.68914 11.7123H4.63436L6.41167 6.37513C6.13215 6.13254 5.95284 5.78446 5.95284 5.38364ZM8.15206 9.60275L7.27131 6.96582L6.39057 9.60275H8.15206Z" fill="#FFA219"/>
</svg>
