<svg width="14" height="15" viewBox="0 0 14 15" fill="none" xmlns="http://www.w3.org/2000/svg">
<g clip-path="url(#clip0_711_813)">
<path d="M6.50056 4.16397C8.39216 4.16397 10.157 4.88756 11.4705 6.20103L12.2267 5.44482C10.7116 3.92919 8.67775 3.09436 6.50056 3.09436C4.32337 3.09489 2.28951 3.92919 0.774414 5.44482L1.53063 6.20103C2.8441 4.88756 4.60896 4.16397 6.50056 4.16397ZM9.53342 8.60658C7.88944 6.96259 5.11167 6.96259 3.46769 8.60658L4.2239 9.36279C5.45769 8.12901 7.54342 8.12901 8.77722 9.36279L9.53342 8.60658Z" fill="#FFA219"/>
<path d="M11.0125 6.9948C8.5674 4.54861 4.4339 4.54861 1.98877 6.9948L2.74498 7.75101C4.78098 5.71501 8.22031 5.71501 10.2563 7.75101L11.0125 6.9948Z" fill="#FFA219"/>
<path d="M6.50027 11.6512C7.091 11.6512 7.56988 11.1723 7.56988 10.5816C7.56988 9.99086 7.091 9.51196 6.50027 9.51196C5.90955 9.51196 5.43066 9.99086 5.43066 10.5816C5.43066 11.1723 5.90955 11.6512 6.50027 11.6512Z" fill="#FFA219"/>
</g>
<defs>
<clipPath id="clip0_711_813">
<rect width="13.3423" height="13.3423" fill="white" transform="translate(0.0827637 0.9552)"/>
</clipPath>
</defs>
</svg>
