<svg width="14" height="13" viewBox="0 0 14 13" fill="none" xmlns="http://www.w3.org/2000/svg">
<path d="M4.48413 6.87189H3.81055H4.48413ZM9.5495 10.4818H8.87598H9.5495ZM8.28311 10.4818H7.60953H8.28311ZM9.5495 9.57932H8.87598H9.5495ZM8.28311 9.57932H7.60953H8.28311ZM9.5495 8.67686H8.87598H9.5495ZM8.28311 8.67686H7.60953H8.28311ZM9.5495 7.77437H8.87598H9.5495ZM8.28311 7.77437H7.60953H8.28311ZM9.5495 6.87189H8.87598H9.5495ZM8.28311 6.87189H7.60953H8.28311ZM9.5495 5.96941H8.87598H9.5495ZM8.28311 5.96941H7.60953H8.28311ZM9.5495 5.06693H8.87598H9.5495ZM8.28311 5.06693H7.60953H8.28311ZM5.75054 5.96941H5.07695H5.75054ZM4.48413 5.96941H3.81055H4.48413ZM5.75054 5.06693H5.07695H5.75054ZM4.48413 5.06693H3.81055H4.48413ZM9.5495 4.16445H8.87598H9.5495ZM8.28311 4.16445H7.60953H8.28311ZM9.5495 3.26196H8.87598H9.5495ZM8.28311 3.26196H7.60953H8.28311ZM7.01669 7.77437H6.34338H7.01669ZM5.75054 7.77437H5.07695H5.75054ZM7.01669 6.87189H6.34338H7.01669ZM5.75054 6.87189H5.07695H5.75054ZM7.01669 4.16445H6.34338H7.01669ZM5.75054 4.16445H5.07695H5.75054ZM7.01669 3.26196H6.34338H7.01669ZM5.75054 3.26196H5.07695H5.75054ZM4.48413 4.16445H3.81055H4.48413Z" stroke="#FFA219" stroke-width="0.617906" stroke-linecap="round" stroke-linejoin="round"/>
<path d="M6.94713 12.621C3.77198 12.621 1.198 10.047 1.198 6.87182C1.198 3.69666 3.77198 1.12268 6.94713 1.12268C10.1223 1.12268 12.6963 3.69666 12.6963 6.87182C12.6963 10.047 10.1223 12.621 6.94713 12.621Z" stroke="#FFA219" stroke-width="0.617906" stroke-linecap="round" stroke-linejoin="round"/>
</svg>
