<svg width="21" height="21" viewBox="0 0 21 21" fill="none" xmlns="http://www.w3.org/2000/svg">
<path d="M19.4844 0.700439H1.51563C1.0835 0.700439 0.734375 1.04956 0.734375 1.48169V19.4504C0.734375 19.8826 1.0835 20.2317 1.51563 20.2317H19.4844C19.9165 20.2317 20.2656 19.8826 20.2656 19.4504V1.48169C20.2656 1.04956 19.9165 0.700439 19.4844 0.700439ZM17.2285 6.40112H15.6685C14.4453 6.40112 14.2085 6.98218 14.2085 7.83667V9.719H17.1284L16.7476 12.6658H14.2085V20.2317H11.1641V12.6682H8.61768V9.719H11.1641V7.54614C11.1641 5.02417 12.7046 3.64966 14.9556 3.64966C16.0347 3.64966 16.96 3.73023 17.231 3.76685V6.40112H17.2285Z" fill="#190E2C"/>
</svg>
