<svg width="24" height="23" viewBox="0 0 24 23" fill="none" xmlns="http://www.w3.org/2000/svg">
<path fill-rule="evenodd" clip-rule="evenodd" d="M7.44312 0.0765625C8.66499 0.0203125 9.05457 0.0078125 12.1671 0.0078125C15.2796 0.0078125 15.6692 0.0213542 16.89 0.0765625C18.1108 0.131771 18.9442 0.326563 19.6733 0.608854C20.4369 0.897396 21.1296 1.34844 21.7025 1.93177C22.2858 2.50365 22.7358 3.19531 23.0233 3.9599C23.3067 4.68906 23.5004 5.5224 23.5567 6.74115C23.6129 7.9651 23.6254 8.35469 23.6254 11.4661C23.6254 14.5786 23.6119 14.9682 23.5567 16.1901C23.5014 17.4089 23.3067 18.2422 23.0233 18.9714C22.7358 19.736 22.2851 20.4289 21.7025 21.0016C21.1296 21.5849 20.4369 22.0349 19.6733 22.3224C18.9442 22.6057 18.1108 22.7995 16.8921 22.8557C15.6692 22.912 15.2796 22.9245 12.1671 22.9245C9.05457 22.9245 8.66499 22.9109 7.44312 22.8557C6.22437 22.8005 5.39103 22.6057 4.66187 22.3224C3.8972 22.0349 3.20439 21.5841 2.63166 21.0016C2.04872 20.4293 1.59761 19.7369 1.30978 18.9724C1.02749 18.2432 0.83374 17.4099 0.77749 16.1911C0.72124 14.9672 0.70874 14.5776 0.70874 11.4661C0.70874 8.35365 0.722282 7.96406 0.77749 6.74323C0.832699 5.5224 1.02749 4.68906 1.30978 3.9599C1.59803 3.1954 2.04949 2.50293 2.6327 1.93073C3.20462 1.34792 3.89673 0.896816 4.66082 0.608854C5.38999 0.326563 6.22332 0.132812 7.44207 0.0765625H7.44312ZM16.7973 2.13906C15.5889 2.08385 15.2264 2.0724 12.1671 2.0724C9.1077 2.0724 8.7452 2.08385 7.53686 2.13906C6.41916 2.1901 5.81291 2.37656 5.40874 2.53385C4.87437 2.74219 4.49207 2.98906 4.09103 3.3901C3.71087 3.75995 3.4183 4.21019 3.23478 4.70781C3.07749 5.11198 2.89103 5.71823 2.83999 6.83594C2.78478 8.04427 2.77332 8.40677 2.77332 11.4661C2.77332 14.5255 2.78478 14.888 2.83999 16.0964C2.89103 17.2141 3.07749 17.8203 3.23478 18.2245C3.41812 18.7214 3.71082 19.1724 4.09103 19.5422C4.46082 19.9224 4.91187 20.2151 5.40874 20.3984C5.81291 20.5557 6.41916 20.7422 7.53686 20.7932C8.7452 20.8484 9.10666 20.8599 12.1671 20.8599C15.2275 20.8599 15.5889 20.8484 16.7973 20.7932C17.915 20.7422 18.5212 20.5557 18.9254 20.3984C19.4598 20.1901 19.8421 19.9432 20.2431 19.5422C20.6233 19.1724 20.916 18.7214 21.0994 18.2245C21.2567 17.8203 21.4431 17.2141 21.4942 16.0964C21.5494 14.888 21.5608 14.5255 21.5608 11.4661C21.5608 8.40677 21.5494 8.04427 21.4942 6.83594C21.4431 5.71823 21.2567 5.11198 21.0994 4.70781C20.891 4.17344 20.6442 3.79115 20.2431 3.3901C19.8732 3.00997 19.423 2.71741 18.9254 2.53385C18.5212 2.37656 17.915 2.1901 16.7973 2.13906ZM10.7035 14.9984C11.5209 15.3387 12.431 15.3846 13.2785 15.1284C14.1259 14.8721 14.8581 14.3296 15.35 13.5935C15.8419 12.8574 16.063 11.9733 15.9755 11.0923C15.8879 10.2113 15.4973 9.38799 14.8702 8.76302C14.4704 8.36352 13.9871 8.05762 13.4549 7.86734C12.9228 7.67706 12.355 7.60715 11.7926 7.66262C11.2302 7.71809 10.687 7.89758 10.2023 8.18816C9.71755 8.47873 9.30326 8.87317 8.98926 9.34307C8.67526 9.81298 8.46935 10.3467 8.38636 10.9057C8.30337 11.4647 8.34536 12.0352 8.5093 12.5761C8.67325 13.1169 8.95507 13.6147 9.33449 14.0336C9.71391 14.4524 10.1815 14.782 10.7035 14.9984ZM8.00249 7.30156C8.54939 6.75466 9.19866 6.32084 9.91322 6.02486C10.6278 5.72887 11.3936 5.57654 12.1671 5.57654C12.9405 5.57654 13.7064 5.72887 14.4209 6.02486C15.1355 6.32084 15.7848 6.75466 16.3317 7.30156C16.8786 7.84846 17.3124 8.49773 17.6084 9.21229C17.9043 9.92685 18.0567 10.6927 18.0567 11.4661C18.0567 12.2396 17.9043 13.0054 17.6084 13.72C17.3124 14.4346 16.8786 15.0838 16.3317 15.6307C15.2271 16.7352 13.7291 17.3558 12.1671 17.3558C10.6051 17.3558 9.10701 16.7352 8.00249 15.6307C6.89797 14.5262 6.27746 13.0282 6.27746 11.4661C6.27746 9.90412 6.89797 8.40608 8.00249 7.30156ZM19.3629 6.45365C19.4984 6.3258 19.6069 6.17206 19.682 6.00153C19.757 5.83101 19.7971 5.64715 19.7998 5.46086C19.8025 5.27457 19.7678 5.08963 19.6978 4.91699C19.6277 4.74435 19.5238 4.58751 19.392 4.45577C19.2603 4.32403 19.1035 4.22006 18.9308 4.15002C18.7582 4.07998 18.5732 4.04529 18.3869 4.048C18.2006 4.05072 18.0168 4.09079 17.8463 4.16583C17.6757 4.24087 17.522 4.34937 17.3942 4.4849C17.1455 4.74847 17.0094 5.09856 17.0147 5.46086C17.02 5.82316 17.1662 6.16914 17.4224 6.42536C17.6787 6.68157 18.0246 6.82784 18.3869 6.83312C18.7492 6.83841 19.0993 6.70228 19.3629 6.45365Z" fill="#190E2C"/>
</svg>
