<svg width="24" height="21" viewBox="0 0 24 21" fill="none" xmlns="http://www.w3.org/2000/svg">
<path d="M23.9612 3.10887C23.0914 3.49429 22.157 3.75471 21.1747 3.87242C22.1882 3.26595 22.9465 2.31144 23.308 1.187C22.3558 1.75261 21.3136 2.15074 20.2268 2.36408C19.4959 1.58373 18.5279 1.0665 17.473 0.8927C16.418 0.718896 15.3352 0.898239 14.3927 1.40289C13.4501 1.90753 12.7005 2.70925 12.2603 3.68356C11.8201 4.65788 11.7138 5.75028 11.958 6.79117C10.0285 6.69429 8.14099 6.19278 6.41786 5.31919C4.69473 4.4456 3.17454 3.21946 1.95596 1.72033C1.53929 2.43908 1.29971 3.27242 1.29971 4.15992C1.29924 4.95887 1.49599 5.74558 1.8725 6.45026C2.249 7.15494 2.79363 7.75579 3.45804 8.1995C2.68749 8.17498 1.93395 7.96677 1.26012 7.59221V7.65471C1.26005 8.77527 1.64766 9.86135 2.35719 10.7287C3.06672 11.596 4.05447 12.1911 5.15283 12.413C4.43802 12.6065 3.6886 12.635 2.96117 12.4964C3.27106 13.4606 3.8747 14.3037 4.68759 14.9078C5.50048 15.5118 6.48191 15.8466 7.4945 15.8651C5.77557 17.2145 3.65271 17.9465 1.46742 17.9432C1.08031 17.9434 0.693536 17.9207 0.309082 17.8755C2.52729 19.3018 5.10944 20.0587 7.74658 20.0557C16.6737 20.0557 21.5539 12.662 21.5539 6.2495C21.5539 6.04117 21.5487 5.83075 21.5393 5.62242C22.4886 4.93593 23.3079 4.08585 23.9591 3.112L23.9612 3.10887Z" fill="#190E2C"/>
</svg>
