<svg width="23" height="23" viewBox="0 0 23 23" fill="none" xmlns="http://www.w3.org/2000/svg">
<path fill-rule="evenodd" clip-rule="evenodd" d="M0.0417483 1.9224C0.0417483 1.41462 0.243463 0.927638 0.602517 0.568583C0.961571 0.209529 1.44855 0.00781505 1.95633 0.00781505H21.0417C21.2934 0.00740406 21.5426 0.0566306 21.7752 0.152676C22.0078 0.248722 22.2192 0.3897 22.3972 0.56754C22.5753 0.74538 22.7165 0.95659 22.8128 1.18908C22.9091 1.42156 22.9586 1.67076 22.9584 1.9224V21.0078C22.9587 21.2595 22.9093 21.5088 22.8132 21.7414C22.717 21.974 22.5759 22.1853 22.398 22.3633C22.2201 22.5414 22.0088 22.6826 21.7763 22.7788C21.5437 22.8751 21.2945 22.9246 21.0428 22.9245H1.95633C1.70482 22.9245 1.45577 22.8749 1.22341 22.7786C0.991056 22.6824 0.779948 22.5412 0.602148 22.3633C0.424349 22.1854 0.283344 21.9743 0.187188 21.7419C0.0910327 21.5094 0.0416115 21.2604 0.0417483 21.0089V1.9224ZM9.11258 8.74531H12.2157V10.3036C12.6636 9.40781 13.8095 8.60157 15.5313 8.60157C18.8324 8.60157 19.6147 10.3859 19.6147 13.6599V19.7245H16.274V14.4057C16.274 12.5411 15.8261 11.4891 14.6886 11.4891C13.1105 11.4891 12.4542 12.6234 12.4542 14.4057V19.7245H9.11258V8.74531ZM3.38342 19.5818H6.72508V8.60157H3.38342V19.5807V19.5818ZM7.20321 5.02031C7.20951 5.30643 7.1586 5.59093 7.05346 5.8571C6.94832 6.12328 6.79107 6.36577 6.59095 6.57035C6.39082 6.77493 6.15185 6.93747 5.88806 7.04845C5.62426 7.15942 5.34096 7.21658 5.05477 7.21658C4.76858 7.21658 4.48528 7.15942 4.22148 7.04845C3.95769 6.93747 3.71872 6.77493 3.51859 6.57035C3.31847 6.36577 3.16122 6.12328 3.05608 5.8571C2.95094 5.59093 2.90003 5.30643 2.90633 5.02031C2.9187 4.4587 3.15048 3.92426 3.55205 3.53145C3.95361 3.13863 4.49302 2.91867 5.05477 2.91867C5.61652 2.91867 6.15593 3.13863 6.55749 3.53145C6.95906 3.92426 7.19084 4.4587 7.20321 5.02031Z" fill="#190E2C"/>
</svg>
