<svg width="14" height="13" viewBox="0 0 14 13" fill="none" xmlns="http://www.w3.org/2000/svg">
<path d="M1.72721 4.53927V0.109741H3.0783V1.46082H11.1848V0.109741H12.5359V4.53927C13.3398 5.00742 13.887 5.86873 13.887 6.86516V9.56732C13.887 9.74649 13.8158 9.91832 13.6891 10.045C13.5624 10.1717 13.3906 10.2429 13.2114 10.2429H12.5359V12.945H11.1848V10.2429H3.0783V12.945H1.72721V10.2429H1.05167C0.872506 10.2429 0.700679 10.1717 0.57399 10.045C0.447301 9.91832 0.376129 9.74649 0.376129 9.56732V6.86516C0.376129 5.86873 0.923993 5.00742 1.72721 4.53927ZM3.0783 2.81191V4.16299H6.456V2.81191H3.0783ZM11.1848 2.81191H7.80709V4.16299H11.1848V2.81191ZM1.72721 8.89178H12.5359V6.86516C12.5359 6.12004 11.9299 5.51407 11.1848 5.51407H3.0783C2.33317 5.51407 1.72721 6.12004 1.72721 6.86516V8.89178Z" fill="#FFA219"/>
</svg>
