<svg width="80" height="5" viewBox="0 0 80 5" fill="none" xmlns="http://www.w3.org/2000/svg">
<path d="M1.63057 4.80803L1.80656 3.19112L0.508635 4.14807L0.0466593 3.35611L1.54258 2.72915L0.0576588 2.12418L0.486636 1.35422L1.81756 2.31117L1.63057 0.683257H2.51053L2.32354 2.31117L3.64347 1.35422L4.06144 2.11318L2.57652 2.74015L4.07244 3.35611L3.62147 4.13707L2.32354 3.19112L2.49953 4.80803H1.63057ZM7.04435 4.80803L7.22034 3.19112L5.92241 4.14807L5.46043 3.35611L6.95635 2.72915L5.47143 2.12418L5.90041 1.35422L7.23134 2.31117L7.04435 0.683257H7.9243L7.73731 2.31117L9.05724 1.35422L9.47522 2.11318L7.99029 2.74015L9.48621 3.35611L9.03524 4.13707L7.73731 3.19112L7.9133 4.80803H7.04435ZM12.4581 4.80803L12.6341 3.19112L11.3362 4.14807L10.8742 3.35611L12.3701 2.72915L10.8852 2.12418L11.3142 1.35422L12.6451 2.31117L12.4581 0.683257H13.3381L13.1511 2.31117L14.471 1.35422L14.889 2.11318L13.4041 2.74015L14.9 3.35611L14.449 4.13707L13.1511 3.19112L13.3271 4.80803H12.4581ZM17.8719 4.80803L18.0479 3.19112L16.7499 4.14807L16.288 3.35611L17.7839 2.72915L16.299 2.12418L16.7279 1.35422L18.0589 2.31117L17.8719 0.683257H18.7518L18.5649 2.31117L19.8848 1.35422L20.3028 2.11318L18.8178 2.74015L20.3138 3.35611L19.8628 4.13707L18.5649 3.19112L18.7408 4.80803H17.8719ZM23.2857 4.80803L23.4617 3.19112L22.1637 4.14807L21.7017 3.35611L23.1977 2.72915L21.7127 2.12418L22.1417 1.35422L23.4727 2.31117L23.2857 0.683257H24.1656L23.9786 2.31117L25.2986 1.35422L25.7165 2.11318L24.2316 2.74015L25.7275 3.35611L25.2766 4.13707L23.9786 3.19112L24.1546 4.80803H23.2857ZM28.6994 4.80803L28.8754 3.19112L27.5775 4.14807L27.1155 3.35611L28.6114 2.72915L27.1265 2.12418L27.5555 1.35422L28.8864 2.31117L28.6994 0.683257H29.5794L29.3924 2.31117L30.7123 1.35422L31.1303 2.11318L29.6454 2.74015L31.1413 3.35611L30.6903 4.13707L29.3924 3.19112L29.5684 4.80803H28.6994ZM34.1132 4.80803L34.2892 3.19112L32.9913 4.14807L32.5293 3.35611L34.0252 2.72915L32.5403 2.12418L32.9693 1.35422L34.3002 2.31117L34.1132 0.683257H34.9932L34.8062 2.31117L36.1261 1.35422L36.5441 2.11318L35.0592 2.74015L36.5551 3.35611L36.1041 4.13707L34.8062 3.19112L34.9822 4.80803H34.1132ZM39.527 4.80803L39.703 3.19112L38.405 4.14807L37.9431 3.35611L39.439 2.72915L37.9541 2.12418L38.383 1.35422L39.714 2.31117L39.527 0.683257H40.4069L40.2199 2.31117L41.5399 1.35422L41.9578 2.11318L40.4729 2.74015L41.9688 3.35611L41.5179 4.13707L40.2199 3.19112L40.3959 4.80803H39.527ZM44.9407 4.80803L45.1167 3.19112L43.8188 4.14807L43.3568 3.35611L44.8528 2.72915L43.3678 2.12418L43.7968 1.35422L45.1277 2.31117L44.9407 0.683257H45.8207L45.6337 2.31117L46.9536 1.35422L47.3716 2.11318L45.8867 2.74015L47.3826 3.35611L46.9316 4.13707L45.6337 3.19112L45.8097 4.80803H44.9407ZM50.3545 4.80803L50.5305 3.19112L49.2326 4.14807L48.7706 3.35611L50.2665 2.72915L48.7816 2.12418L49.2106 1.35422L50.5415 2.31117L50.3545 0.683257H51.2345L51.0475 2.31117L52.3674 1.35422L52.7854 2.11318L51.3005 2.74015L52.7964 3.35611L52.3454 4.13707L51.0475 3.19112L51.2235 4.80803H50.3545ZM55.7683 4.80803L55.9443 3.19112L54.6464 4.14807L54.1844 3.35611L55.6803 2.72915L54.1954 2.12418L54.6244 1.35422L55.9553 2.31117L55.7683 0.683257H56.6482L56.4613 2.31117L57.7812 1.35422L58.1992 2.11318L56.7142 2.74015L58.2102 3.35611L57.7592 4.13707L56.4613 3.19112L56.6372 4.80803H55.7683ZM61.1821 4.80803L61.3581 3.19112L60.0601 4.14807L59.5981 3.35611L61.0941 2.72915L59.6091 2.12418L60.0381 1.35422L61.3691 2.31117L61.1821 0.683257H62.062L61.875 2.31117L63.195 1.35422L63.6129 2.11318L62.128 2.74015L63.6239 3.35611L63.173 4.13707L61.875 3.19112L62.051 4.80803H61.1821ZM66.5958 4.80803L66.7718 3.19112L65.4739 4.14807L65.0119 3.35611L66.5078 2.72915L65.0229 2.12418L65.4519 1.35422L66.7828 2.31117L66.5958 0.683257H67.4758L67.2888 2.31117L68.6087 1.35422L69.0267 2.11318L67.5418 2.74015L69.0377 3.35611L68.5867 4.13707L67.2888 3.19112L67.4648 4.80803H66.5958ZM72.0096 4.80803L72.1856 3.19112L70.8877 4.14807L70.4257 3.35611L71.9216 2.72915L70.4367 2.12418L70.8657 1.35422L72.1966 2.31117L72.0096 0.683257H72.8896L72.7026 2.31117L74.0225 1.35422L74.4405 2.11318L72.9556 2.74015L74.4515 3.35611L74.0005 4.13707L72.7026 3.19112L72.8786 4.80803H72.0096ZM77.4234 4.80803L77.5994 3.19112L76.3014 4.14807L75.8395 3.35611L77.3354 2.72915L75.8505 2.12418L76.2794 1.35422L77.6104 2.31117L77.4234 0.683257H78.3033L78.1163 2.31117L79.4363 1.35422L79.8542 2.11318L78.3693 2.74015L79.8652 3.35611L79.4143 4.13707L78.1163 3.19112L78.2923 4.80803H77.4234Z" fill="#898989"/>
</svg>
