<svg width="120" height="120" viewBox="0 0 120 120" fill="none" xmlns="http://www.w3.org/2000/svg">
<path d="M47.5084 81.4302H52.789L86.704 47.5152L81.4234 42.2346L50.1859 73.5465L35.9059 59.2665L30.6252 64.5471L47.5084 81.4302Z" fill="#3B2F4C"/>
<path fill-rule="evenodd" clip-rule="evenodd" d="M64.8378 8.02221C76.7378 8.76596 87.894 14.716 96.0752 22.8972C105.744 33.3097 110.95 45.9535 110.95 60.8285C110.95 72.7285 106.488 83.8847 99.0502 93.5535C91.6127 102.478 81.2002 109.172 69.3002 111.403C57.4002 113.635 45.5002 112.147 35.0877 106.197C24.6752 100.247 16.494 91.3222 12.0315 80.166C7.569 69.0097 6.82525 56.366 10.544 45.2097C14.2627 33.3097 20.9565 23.641 31.369 16.9472C41.0377 10.2535 52.9378 7.27846 64.8378 8.02221ZM68.5565 103.966C78.2253 101.735 87.1502 96.5285 93.844 88.3472C99.794 80.166 103.513 70.4972 102.769 60.0847C102.769 48.1847 98.3065 36.2847 90.1252 28.1035C82.6877 20.666 73.7627 16.2035 63.3502 15.4597C53.6815 14.716 43.269 16.9472 35.0877 22.8972C26.9065 28.8472 20.9565 37.0285 17.9815 47.441C15.0065 57.1097 15.0065 67.5222 19.469 77.191C23.9315 86.8597 30.6252 94.2972 39.5502 99.5035C48.4752 104.71 58.8877 106.197 68.5565 103.966Z" fill="#3B2F4C"/>
</svg>
