<svg width="36" height="25" viewBox="0 0 36 25" fill="none" xmlns="http://www.w3.org/2000/svg">
<path d="M9.92572 15.2183C12.5886 15.2183 14.7382 13.0687 14.7382 10.4058C14.7382 7.74285 12.5886 5.59326 9.92572 5.59326C7.2628 5.59326 5.11322 7.74285 5.11322 10.4058C5.11322 13.0687 7.2628 15.2183 9.92572 15.2183ZM9.92572 8.80159C10.808 8.80159 11.5299 9.52347 11.5299 10.4058C11.5299 11.2881 10.808 12.0099 9.92572 12.0099C9.04343 12.0099 8.32155 11.2881 8.32155 10.4058C8.32155 9.52347 9.04343 8.80159 9.92572 8.80159ZM29.1757 3.98909H16.3424V16.8224H3.50905V0.780762H0.30072V24.8433H3.50905V20.0308H32.384V24.8433H35.5924V10.4058C35.5924 6.86055 32.7209 3.98909 29.1757 3.98909ZM32.384 16.8224H19.5507V7.19743H29.1757C30.9403 7.19743 32.384 8.64118 32.384 10.4058V16.8224Z" fill="#FFA219"/>
</svg>
