<svg width="40" height="40" viewBox="0 0 40 40" fill="none" xmlns="http://www.w3.org/2000/svg">
<path d="M11.9257 23.2183C14.5886 23.2183 16.7382 21.0687 16.7382 18.4058C16.7382 15.7428 14.5886 13.5933 11.9257 13.5933C9.2628 13.5933 7.11322 15.7428 7.11322 18.4058C7.11322 21.0687 9.2628 23.2183 11.9257 23.2183ZM11.9257 16.8016C12.808 16.8016 13.5299 17.5235 13.5299 18.4058C13.5299 19.2881 12.808 20.0099 11.9257 20.0099C11.0434 20.0099 10.3216 19.2881 10.3216 18.4058C10.3216 17.5235 11.0434 16.8016 11.9257 16.8016ZM31.1757 11.9891H18.3424V24.8224H5.50905V8.78076H2.30072V32.8433H5.50905V28.0308H34.384V32.8433H37.5924V18.4058C37.5924 14.8606 34.7209 11.9891 31.1757 11.9891ZM34.384 24.8224H21.5507V15.1974H31.1757C32.9403 15.1974 34.384 16.6412 34.384 18.4058V24.8224Z" fill="#FFA219"/>
</svg>
