<svg width="176" height="24" viewBox="0 0 176 24" fill="none" xmlns="http://www.w3.org/2000/svg">
<path d="M0.371533 10.1317C0.371533 15.2067 4.32153 19.0817 9.54653 19.0817C12.0965 19.0817 14.7715 17.8567 16.6215 15.9567L14.2965 13.4317C13.0465 14.6817 11.3215 15.4817 9.74653 15.4817C6.74653 15.4817 4.42153 13.1317 4.42153 10.0817C4.42153 7.03174 6.74653 4.70674 9.74653 4.70674C11.3715 4.70674 13.0965 5.60674 14.2965 6.98174L16.5965 4.18174C14.8715 2.40674 12.2215 1.28174 9.69653 1.28174C4.39653 1.28174 0.371533 5.08174 0.371533 10.1317ZM17.4131 12.1817C17.4131 16.2817 20.3131 19.0567 24.6381 19.0567C28.9381 19.0567 31.8381 16.2817 31.8381 12.1817C31.8381 8.05674 28.9381 5.33174 24.6381 5.33174C20.3131 5.33174 17.4131 8.05674 17.4131 12.1817ZM21.2881 12.2317C21.2881 10.0317 22.6381 8.53174 24.6381 8.53174C26.6131 8.53174 27.9881 10.0317 27.9881 12.2317C27.9881 14.4317 26.6131 15.9317 24.6381 15.9317C22.6381 15.9317 21.2881 14.4317 21.2881 12.2317ZM34.3834 18.9067H38.2334V12.4317C38.2334 10.1567 39.9334 8.68174 42.6834 8.93174V5.30674C40.6834 5.33174 39.1584 6.23174 38.2334 7.88174V5.45674H34.3834V18.9067ZM44.9088 23.7567H48.7588V16.9567C49.7338 18.3067 51.2088 19.0567 53.0838 19.0567C56.8588 19.0567 59.3338 16.3317 59.3338 12.2567C59.3338 8.10674 56.7838 5.33174 53.0088 5.33174C51.1838 5.33174 49.7088 6.08174 48.7588 7.43174V5.45674H44.9088V23.7567ZM48.7588 12.1317C48.7588 9.95674 50.1338 8.43174 52.1088 8.43174C54.0838 8.43174 55.4338 9.98174 55.4338 12.1317C55.4338 14.3317 54.0838 15.8567 52.1088 15.8567C50.1338 15.8567 48.7588 14.3567 48.7588 12.1317ZM60.7237 12.2317C60.7237 16.3067 63.4487 19.0567 67.7487 19.0567C70.1737 19.0567 72.1487 18.1817 73.4987 16.6817L71.4737 14.6317C70.5487 15.5567 69.3487 16.0567 68.0737 16.0567C66.3487 16.0567 65.0487 15.0567 64.5987 13.3567H74.2487C74.5737 8.45674 72.3737 5.33174 67.6487 5.33174C63.5487 5.33174 60.7237 8.08174 60.7237 12.2317ZM64.5237 11.0817C64.8237 9.30674 65.9737 8.15674 67.6737 8.15674C69.4487 8.15674 70.5987 9.30674 70.6487 11.0817H64.5237ZM76.7907 18.9067H80.6407V12.4317C80.6407 10.1567 82.3407 8.68174 85.0907 8.93174V5.30674C83.0907 5.33174 81.5657 6.23174 80.6407 7.88174V5.45674H76.7907V18.9067ZM85.7911 17.1817C87.3161 18.4067 89.4411 19.0567 91.6161 19.0567C94.6661 19.0567 97.0911 17.6067 97.0911 14.8567C97.1161 10.1067 90.0161 11.1317 90.0161 9.10674C90.0161 8.40674 90.6661 8.10674 91.5661 8.10674C92.6911 8.10674 94.1911 8.58174 95.6661 9.40674L96.9911 6.78174C95.4911 5.83174 93.5911 5.28174 91.7411 5.28174C88.8161 5.28174 86.4411 6.70674 86.4411 9.48174C86.4411 14.2067 93.4161 13.0567 93.4161 15.2067C93.4161 15.9317 92.6911 16.2567 91.7161 16.2567C90.2411 16.2567 88.4411 15.6567 87.0411 14.5817L85.7911 17.1817Z" fill="#190E2C"/>
<path d="M105.822 18.9067H109.672V0.356737H105.822V18.9067ZM112.384 12.1817C112.384 16.2817 115.284 19.0567 119.609 19.0567C123.909 19.0567 126.809 16.2817 126.809 12.1817C126.809 8.05674 123.909 5.33174 119.609 5.33174C115.284 5.33174 112.384 8.05674 112.384 12.1817ZM116.259 12.2317C116.259 10.0317 117.609 8.53174 119.609 8.53174C121.584 8.53174 122.959 10.0317 122.959 12.2317C122.959 14.4317 121.584 15.9317 119.609 15.9317C117.609 15.9317 116.259 14.4317 116.259 12.2317ZM128.204 12.1317C128.204 16.2817 130.729 19.0567 134.554 19.0567C136.404 19.0567 137.854 18.3067 138.804 16.9317V18.9067H142.629V0.356737H138.804V7.43174C137.829 6.05674 136.354 5.30674 134.454 5.30674C130.704 5.30674 128.204 8.03174 128.204 12.1317ZM132.054 12.2317C132.079 10.0567 133.454 8.50674 135.454 8.50674C137.429 8.50674 138.804 10.0317 138.804 12.2317C138.804 14.4317 137.429 15.9567 135.454 15.9567C133.429 15.9567 132.079 14.4317 132.054 12.2317ZM145.318 11.7067C145.318 15.6067 147.718 18.2067 151.193 18.2067C152.968 18.2067 154.343 17.5067 155.243 16.2567V17.7817C155.243 19.6067 153.843 20.7817 151.643 20.7817C150.118 20.7817 148.693 20.3067 147.468 19.4317L146.043 22.1317C147.593 23.1817 149.618 23.9067 151.893 23.9067C156.193 23.9067 159.068 21.4817 159.068 17.6567V5.45674H155.243V7.28174C154.318 6.03174 152.918 5.30674 151.093 5.33174C147.668 5.33174 145.318 7.90674 145.318 11.7067ZM148.918 11.8067C148.943 9.75674 150.218 8.30674 152.093 8.30674C153.968 8.30674 155.243 9.73174 155.243 11.8067C155.243 13.8567 153.968 15.2817 152.093 15.2817C150.193 15.2817 148.943 13.8567 148.918 11.8067ZM161.432 12.2317C161.432 16.3067 164.157 19.0567 168.457 19.0567C170.882 19.0567 172.857 18.1817 174.207 16.6817L172.182 14.6317C171.257 15.5567 170.057 16.0567 168.782 16.0567C167.057 16.0567 165.757 15.0567 165.307 13.3567H174.957C175.282 8.45674 173.082 5.33174 168.357 5.33174C164.257 5.33174 161.432 8.08174 161.432 12.2317ZM165.232 11.0817C165.532 9.30674 166.682 8.15674 168.382 8.15674C170.157 8.15674 171.307 9.30674 171.357 11.0817H165.232Z" fill="#83370E"/>
</svg>
