<svg width="147" height="31" viewBox="0 0 147 31" fill="none" xmlns="http://www.w3.org/2000/svg">
<path d="M24.5808 2.57715H12.0808C10.7021 2.57715 9.58081 3.6984 9.58081 5.07715V12.0596L3.69706 17.9434C3.5223 18.1182 3.40329 18.3409 3.35508 18.5834C3.30687 18.8258 3.33163 19.0771 3.42621 19.3055C3.5208 19.5338 3.68098 19.729 3.88649 19.8664C4.092 20.0038 4.33362 20.0771 4.58081 20.0771V26.3271C4.58081 26.6587 4.71251 26.9766 4.94693 27.211C5.18135 27.4455 5.49929 27.5771 5.83081 27.5771H25.8308C26.1623 27.5771 26.4803 27.4455 26.7147 27.211C26.9491 26.9766 27.0808 26.6587 27.0808 26.3271V5.07715C27.0808 3.6984 25.9596 2.57715 24.5808 2.57715ZM14.5808 25.0771H7.08081V18.0946L10.8308 14.3446L14.5808 18.0946V25.0771ZM24.5808 25.0771H17.0808V20.0771C17.3283 20.0777 17.5703 20.0047 17.7762 19.8675C17.9821 19.7302 18.1426 19.5349 18.2373 19.3062C18.332 19.0776 18.3566 18.826 18.308 18.5834C18.2595 18.3407 18.1399 18.118 17.9646 17.9434L12.0808 12.0596V5.07715H24.5808V25.0771Z" fill="#83370E"/>
<path d="M14.5808 7.57715H17.0808V10.0771H14.5808V7.57715ZM19.5808 7.57715H22.0808V10.0771H19.5808V7.57715ZM19.5808 12.6159H22.0808V15.0771H19.5808V12.6159ZM19.5808 17.5771H22.0808V20.0771H19.5808V17.5771ZM9.58081 18.8271H12.0808V21.3271H9.58081V18.8271Z" fill="#83370E"/>
<path d="M47.3108 10.3451C44.0628 10.3451 41.4708 12.8251 41.4708 15.9611C41.4708 19.1291 44.0308 21.6411 47.2628 21.6411C48.8148 21.6411 50.3188 20.9531 51.4228 19.9131L50.6388 19.0331C49.7588 19.8651 48.5588 20.3771 47.3268 20.3771C44.7988 20.3771 42.7668 18.4091 42.7668 15.9611C42.7668 13.4971 44.7988 11.5451 47.3268 11.5451C48.5588 11.5451 49.7748 12.0731 50.6388 12.9531L51.4068 11.9771C50.3348 10.9691 48.8468 10.3451 47.3108 10.3451ZM56.7123 13.1131C54.2163 13.1131 52.4403 14.8411 52.4403 17.3531C52.4403 19.8811 54.2163 21.6251 56.7123 21.6251C59.2083 21.6251 60.9843 19.8811 60.9843 17.3531C60.9843 14.8411 59.2083 13.1131 56.7123 13.1131ZM56.7123 14.2491C58.4723 14.2491 59.7363 15.5291 59.7363 17.3691C59.7363 19.2251 58.4723 20.5051 56.7123 20.5051C54.9523 20.5051 53.6883 19.2251 53.6883 17.3691C53.6883 15.5291 54.9523 14.2491 56.7123 14.2491ZM64.4269 13.1451H63.1789V21.5771H64.4269V17.0971C64.5709 15.4331 65.6749 14.3291 67.4509 14.3611V13.0971C66.0269 13.1131 64.9869 13.7851 64.4269 15.0171V13.1451ZM73.7081 13.0971C72.2361 13.0971 71.0841 13.7851 70.4601 14.9691V13.1451H69.2121V24.6811H70.4601V19.7691C71.0841 20.9371 72.2361 21.6251 73.7401 21.6251C76.1241 21.6251 77.7561 19.8811 77.7561 17.3851C77.7561 14.8571 76.0921 13.0971 73.7081 13.0971ZM73.4841 20.4891C71.7081 20.4891 70.4601 19.1931 70.4601 17.3531C70.4601 15.5291 71.7081 14.2171 73.4841 14.2171C75.2441 14.2171 76.4921 15.5451 76.4921 17.3531C76.4921 19.1771 75.2441 20.4891 73.4841 20.4891ZM83.2726 13.1131C80.8246 13.1131 79.0966 14.8571 79.0966 17.3691C79.0966 19.8811 80.8086 21.6251 83.2886 21.6251C84.6966 21.6251 85.8806 21.1131 86.6806 20.2171L85.9926 19.4811C85.3366 20.1691 84.4246 20.5371 83.3846 20.5371C81.7526 20.5371 80.5526 19.4971 80.3286 17.8491H87.2086C87.3366 14.9851 85.9926 13.0971 83.2726 13.1131ZM80.3286 16.8251C80.5206 15.2251 81.6726 14.1851 83.2726 14.1851C84.9206 14.1851 86.0086 15.2091 86.0886 16.8251H80.3286ZM90.5988 13.1451H89.3508V21.5771H90.5988V17.0971C90.7428 15.4331 91.8468 14.3291 93.6228 14.3611V13.0971C92.1988 13.1131 91.1588 13.7851 90.5988 15.0171V13.1451ZM101.151 20.3611V10.3771H99.8706V21.5771H106.063V20.3611H101.151ZM111.384 13.1131C108.888 13.1131 107.112 14.8411 107.112 17.3531C107.112 19.8811 108.888 21.6251 111.384 21.6251C113.88 21.6251 115.656 19.8811 115.656 17.3531C115.656 14.8411 113.88 13.1131 111.384 13.1131ZM111.384 14.2491C113.144 14.2491 114.408 15.5291 114.408 17.3691C114.408 19.2251 113.144 20.5051 111.384 20.5051C109.624 20.5051 108.36 19.2251 108.36 17.3691C108.36 15.5291 109.624 14.2491 111.384 14.2491ZM125.595 9.70515H124.347V14.9691C123.723 13.7691 122.555 13.0811 121.051 13.0811C118.667 13.0811 117.003 14.8251 117.003 17.3531C117.003 19.8651 118.667 21.6411 121.067 21.6411C122.571 21.6411 123.723 20.9531 124.347 19.7691V21.5771H125.595V9.70515ZM121.307 20.5211C119.515 20.5211 118.251 19.2091 118.251 17.3851C118.251 15.5451 119.515 14.2171 121.307 14.2171C123.083 14.2171 124.347 15.5451 124.347 17.3851C124.347 19.2091 123.083 20.5211 121.307 20.5211ZM136.054 13.1451H134.806V14.8571C134.198 13.7371 133.11 13.0971 131.67 13.0971C129.414 13.1131 127.862 14.7771 127.862 17.1291C127.862 19.5291 129.43 21.2091 131.702 21.2091C133.126 21.2091 134.214 20.5691 134.806 19.4491V20.7291C134.806 22.4891 133.606 23.6091 131.766 23.6091C130.646 23.5931 129.766 23.2251 128.934 22.5371L128.358 23.4971C129.382 24.2651 130.486 24.6971 131.814 24.7131C134.374 24.7131 136.054 23.1611 136.054 20.6971V13.1451ZM131.926 20.1531C130.23 20.1531 129.046 18.9051 129.03 17.1771C129.046 15.4331 130.23 14.1851 131.926 14.1851C133.606 14.1851 134.806 15.4171 134.806 17.1771C134.806 18.9051 133.606 20.1531 131.926 20.1531ZM142.21 13.1131C139.762 13.1131 138.034 14.8571 138.034 17.3691C138.034 19.8811 139.746 21.6251 142.226 21.6251C143.634 21.6251 144.818 21.1131 145.618 20.2171L144.93 19.4811C144.274 20.1691 143.362 20.5371 142.322 20.5371C140.69 20.5371 139.49 19.4971 139.266 17.8491H146.146C146.274 14.9851 144.93 13.0971 142.21 13.1131ZM139.266 16.8251C139.458 15.2251 140.61 14.1851 142.21 14.1851C143.858 14.1851 144.946 15.2091 145.026 16.8251H139.266Z" fill="#190E2C"/>
</svg>
