<svg width="20" height="20" viewBox="0 0 20 20" fill="none" xmlns="http://www.w3.org/2000/svg">
<path d="M19.1809 0.362305H1.21214C0.780006 0.362305 0.430885 0.711426 0.430885 1.14355V19.1123C0.430885 19.5444 0.780006 19.8936 1.21214 19.8936H19.1809C19.613 19.8936 19.9621 19.5444 19.9621 19.1123V1.14355C19.9621 0.711426 19.613 0.362305 19.1809 0.362305ZM16.925 6.06299H15.365C14.1418 6.06299 13.905 6.64404 13.905 7.49854V9.38086H16.8249L16.4441 12.3276H13.905V19.8936H10.8606V12.3301H8.31419V9.38086H10.8606V7.20801C10.8606 4.68604 12.4011 3.31152 14.6521 3.31152C15.7312 3.31152 16.6565 3.39209 16.9275 3.42871V6.06299H16.925Z" fill="#190E2C"/>
</svg>
