<svg width="39" height="40" viewBox="0 0 39 40" fill="none" xmlns="http://www.w3.org/2000/svg">
<path fill-rule="evenodd" clip-rule="evenodd" d="M5.25903 33.2441V17.6035H7.66528V33.2441C7.66528 33.5632 7.79204 33.8692 8.01767 34.0949C8.2433 34.3205 8.54932 34.4473 8.86841 34.4473H30.5247C30.8437 34.4473 31.1498 34.3205 31.3754 34.0949C31.601 33.8692 31.7278 33.5632 31.7278 33.2441V17.6035H34.134V33.2441C34.134 34.2014 33.7538 35.1195 33.0769 35.7964C32.4 36.4732 31.4819 36.8535 30.5247 36.8535H8.86841C7.91114 36.8535 6.99308 36.4732 6.31619 35.7964C5.63931 35.1195 5.25903 34.2014 5.25903 33.2441ZM31.7278 6.77539V15.1973L26.9153 10.3848V6.77539C26.9153 6.4563 27.042 6.15028 27.2677 5.92465C27.4933 5.69902 27.7993 5.57227 28.1184 5.57227H30.5247C30.8437 5.57227 31.1498 5.69902 31.3754 5.92465C31.601 6.15028 31.7278 6.4563 31.7278 6.77539Z" fill="#FFA219"/>
<path fill-rule="evenodd" clip-rule="evenodd" d="M17.9951 4.36907C18.4464 3.91797 19.0583 3.66455 19.6963 3.66455C20.3344 3.66455 20.9463 3.91797 21.3976 4.36907L37.3919 20.361C37.6178 20.5869 37.7447 20.8933 37.7447 21.2128C37.7447 21.5323 37.6178 21.8387 37.3919 22.0646C37.166 22.2905 36.8596 22.4175 36.5401 22.4175C36.2206 22.4175 35.9142 22.2905 35.6883 22.0646L19.6963 6.07029L3.70441 22.0646C3.47849 22.2905 3.17209 22.4175 2.85259 22.4175C2.5331 22.4175 2.2267 22.2905 2.00078 22.0646C1.77487 21.8387 1.64795 21.5323 1.64795 21.2128C1.64795 20.8933 1.77487 20.5869 2.00078 20.361L17.9951 4.36907Z" fill="#FFA219"/>
</svg>
