<svg width="139" height="31" viewBox="0 0 139 31" fill="none" xmlns="http://www.w3.org/2000/svg">
<path d="M24.5808 2.57715H12.0808C10.7021 2.57715 9.58081 3.6984 9.58081 5.07715V12.0596L3.69706 17.9434C3.5223 18.1182 3.40329 18.3409 3.35508 18.5834C3.30687 18.8258 3.33163 19.0771 3.42621 19.3055C3.5208 19.5338 3.68098 19.729 3.88649 19.8664C4.092 20.0038 4.33362 20.0771 4.58081 20.0771V26.3271C4.58081 26.6587 4.71251 26.9766 4.94693 27.211C5.18135 27.4455 5.49929 27.5771 5.83081 27.5771H25.8308C26.1623 27.5771 26.4803 27.4455 26.7147 27.211C26.9491 26.9766 27.0808 26.6587 27.0808 26.3271V5.07715C27.0808 3.6984 25.9596 2.57715 24.5808 2.57715ZM14.5808 25.0771H7.08081V18.0946L10.8308 14.3446L14.5808 18.0946V25.0771ZM24.5808 25.0771H17.0808V20.0771C17.3283 20.0777 17.5703 20.0047 17.7762 19.8675C17.9821 19.7302 18.1426 19.5349 18.2373 19.3062C18.332 19.0776 18.3566 18.826 18.308 18.5834C18.2595 18.3407 18.1399 18.118 17.9646 17.9434L12.0808 12.0596V5.07715H24.5808V25.0771Z" fill="#83370E"/>
<path d="M14.5808 7.57715H17.0808V10.0771H14.5808V7.57715ZM19.5808 7.57715H22.0808V10.0771H19.5808V7.57715ZM19.5808 12.6159H22.0808V15.0771H19.5808V12.6159ZM19.5808 17.5771H22.0808V20.0771H19.5808V17.5771ZM9.58081 18.8271H12.0808V21.3271H9.58081V18.8271Z" fill="#83370E"/>
<path d="M51.8388 21.5771V10.3771H50.5588V15.4331H43.8068V10.3771H42.5268V21.5771H43.8068V16.6491H50.5588V21.5771H51.8388ZM58.4779 13.1131C55.9819 13.1131 54.2059 14.8411 54.2059 17.3531C54.2059 19.8811 55.9819 21.6251 58.4779 21.6251C60.9739 21.6251 62.7499 19.8811 62.7499 17.3531C62.7499 14.8411 60.9739 13.1131 58.4779 13.1131ZM58.4779 14.2491C60.2379 14.2491 61.5019 15.5291 61.5019 17.3691C61.5019 19.2251 60.2379 20.5051 58.4779 20.5051C56.7179 20.5051 55.4539 19.2251 55.4539 17.3691C55.4539 15.5291 56.7179 14.2491 58.4779 14.2491ZM68.9446 19.9931C68.4806 20.2811 68.0326 20.4251 67.6006 20.4251C66.8806 20.4251 66.4806 20.0411 66.4806 19.0171V14.4251H69.1526V13.4011L66.4806 13.4171V11.1931H65.2486V13.4171H64.0326V14.4251H65.2486V19.2411C65.2486 20.9051 66.1606 21.6411 67.3926 21.6411C68.0646 21.6251 68.7046 21.4011 69.2966 21.0011L68.9446 19.9931ZM74.3819 13.1131C71.9339 13.1131 70.2059 14.8571 70.2059 17.3691C70.2059 19.8811 71.9179 21.6251 74.3979 21.6251C75.8059 21.6251 76.9899 21.1131 77.7899 20.2171L77.1019 19.4811C76.4459 20.1691 75.5339 20.5371 74.4939 20.5371C72.8619 20.5371 71.6619 19.4971 71.4379 17.8491H78.3179C78.4459 14.9851 77.1019 13.0971 74.3819 13.1131ZM71.4379 16.8251C71.6299 15.2251 72.7819 14.1851 74.3819 14.1851C76.0299 14.1851 77.1179 15.2091 77.1979 16.8251H71.4379ZM81.7882 21.5771V9.70515H80.5402V21.5771H81.7882ZM90.7599 20.3611V10.3771H89.4799V21.5771H95.6719V20.3611H90.7599ZM98.1776 9.86515C97.7136 9.86515 97.3616 10.2331 97.3616 10.7291C97.3616 11.2251 97.7136 11.5931 98.1776 11.5931C98.6416 11.5931 98.9936 11.2251 98.9936 10.7291C98.9936 10.2331 98.6416 9.86515 98.1776 9.86515ZM98.8016 21.5771V13.1451H97.5696V21.5771H98.8016ZM104.075 13.0971C102.539 13.0971 101.147 13.7691 101.147 15.3851C101.131 18.3771 105.851 17.3371 105.803 19.3691C105.787 20.2011 104.987 20.5691 103.995 20.5691C103.003 20.5691 101.915 20.1691 101.195 19.4971L100.715 20.4411C101.515 21.2091 102.747 21.6251 103.947 21.6251C105.563 21.6251 107.035 20.8891 107.035 19.2251C107.035 16.2011 102.331 17.1611 102.331 15.2891C102.331 14.5051 103.051 14.1691 103.995 14.1691C104.779 14.1691 105.627 14.4411 106.283 14.8571L106.763 13.8651C106.059 13.3851 105.083 13.0971 104.075 13.0971ZM113.085 19.9931C112.621 20.2811 112.173 20.4251 111.741 20.4251C111.021 20.4251 110.621 20.0411 110.621 19.0171V14.4251H113.293V13.4011L110.621 13.4171V11.1931H109.389V13.4171H108.173V14.4251H109.389V19.2411C109.389 20.9051 110.301 21.6411 111.533 21.6411C112.205 21.6251 112.845 21.4011 113.437 21.0011L113.085 19.9931ZM115.928 9.86515C115.464 9.86515 115.112 10.2331 115.112 10.7291C115.112 11.2251 115.464 11.5931 115.928 11.5931C116.392 11.5931 116.744 11.2251 116.744 10.7291C116.744 10.2331 116.392 9.86515 115.928 9.86515ZM116.552 21.5771V13.1451H115.32V21.5771H116.552ZM124.097 13.0971C122.561 13.1131 121.425 13.7211 120.833 15.0011V13.1451H119.585V21.5771H120.833V17.0491C120.977 15.4491 122.001 14.3611 123.665 14.3451C125.153 14.3451 126.049 15.2251 126.049 16.7131V21.5771H127.297V16.3771C127.297 14.3451 126.113 13.0971 124.097 13.0971ZM137.429 13.1451H136.181V14.8571C135.573 13.7371 134.485 13.0971 133.045 13.0971C130.789 13.1131 129.237 14.7771 129.237 17.1291C129.237 19.5291 130.805 21.2091 133.077 21.2091C134.501 21.2091 135.589 20.5691 136.181 19.4491V20.7291C136.181 22.4891 134.981 23.6091 133.141 23.6091C132.021 23.5931 131.141 23.2251 130.309 22.5371L129.733 23.4971C130.757 24.2651 131.861 24.6971 133.189 24.7131C135.749 24.7131 137.429 23.1611 137.429 20.6971V13.1451ZM133.301 20.1531C131.605 20.1531 130.421 18.9051 130.405 17.1771C130.421 15.4331 131.605 14.1851 133.301 14.1851C134.981 14.1851 136.181 15.4171 136.181 17.1771C136.181 18.9051 134.981 20.1531 133.301 20.1531Z" fill="#190E2C"/>
</svg>
