<svg width="37" height="34" viewBox="0 0 37 34" fill="none" xmlns="http://www.w3.org/2000/svg">
<path fill-rule="evenodd" clip-rule="evenodd" d="M4.25903 30.2441V14.6035H6.66528V30.2441C6.66528 30.5632 6.79204 30.8692 7.01767 31.0949C7.2433 31.3205 7.54932 31.4473 7.86841 31.4473H29.5247C29.8437 31.4473 30.1498 31.3205 30.3754 31.0949C30.601 30.8692 30.7278 30.5632 30.7278 30.2441V14.6035H33.134V30.2441C33.134 31.2014 32.7538 32.1195 32.0769 32.7964C31.4 33.4732 30.4819 33.8535 29.5247 33.8535H7.86841C6.91114 33.8535 5.99308 33.4732 5.31619 32.7964C4.63931 32.1195 4.25903 31.2014 4.25903 30.2441ZM30.7278 3.77539V12.1973L25.9153 7.38477V3.77539C25.9153 3.4563 26.042 3.15028 26.2677 2.92465C26.4933 2.69902 26.7993 2.57227 27.1184 2.57227H29.5247C29.8437 2.57227 30.1498 2.69902 30.3754 2.92465C30.601 3.15028 30.7278 3.4563 30.7278 3.77539Z" fill="#FFA219"/>
<path fill-rule="evenodd" clip-rule="evenodd" d="M16.9951 1.36907C17.4464 0.917966 18.0583 0.664551 18.6963 0.664551C19.3344 0.664551 19.9463 0.917966 20.3976 1.36907L36.3919 17.361C36.6178 17.5869 36.7447 17.8933 36.7447 18.2128C36.7447 18.5323 36.6178 18.8387 36.3919 19.0646C36.166 19.2905 35.8596 19.4175 35.5401 19.4175C35.2206 19.4175 34.9142 19.2905 34.6883 19.0646L18.6963 3.07029L2.70441 19.0646C2.47849 19.2905 2.17209 19.4175 1.85259 19.4175C1.5331 19.4175 1.2267 19.2905 1.00078 19.0646C0.774867 18.8387 0.647949 18.5323 0.647949 18.2128C0.647949 17.8933 0.774867 17.5869 1.00078 17.361L16.9951 1.36907Z" fill="#FFA219"/>
</svg>
