<svg width="146" height="31" viewBox="0 0 146 31" fill="none" xmlns="http://www.w3.org/2000/svg">
<path d="M28.9225 14.4855L16.4225 1.98549C16.2663 1.83028 16.0551 1.74316 15.835 1.74316C15.6148 1.74316 15.4036 1.83028 15.2475 1.98549L2.74748 14.4855C2.61096 14.6449 2.53962 14.85 2.54772 15.0597C2.55582 15.2694 2.64276 15.4684 2.79117 15.6168C2.93959 15.7652 3.13854 15.8522 3.34827 15.8603C3.558 15.8684 3.76306 15.797 3.92248 15.6605L15.8308 3.75216L27.7391 15.6688C27.8986 15.8053 28.1036 15.8767 28.3134 15.8686C28.5231 15.8605 28.722 15.7735 28.8704 15.6251C29.0189 15.4767 29.1058 15.2778 29.1139 15.068C29.122 14.8583 29.0507 14.6532 28.9141 14.4938L28.9225 14.4855Z" fill="#83370E"/>
<path d="M24.1641 26.7438H19.9975V18.4105H11.6641V26.7438H7.49748V15.0771L5.83081 16.7438V26.7438C5.83081 27.1858 6.00641 27.6098 6.31897 27.9223C6.63153 28.2349 7.05545 28.4105 7.49748 28.4105H13.3308V20.0771H18.3308V28.4105H24.1641C24.6062 28.4105 25.0301 28.2349 25.3427 27.9223C25.6552 27.6098 25.8308 27.1858 25.8308 26.7438V16.5438L24.1641 14.8771V26.7438Z" fill="#83370E"/>
<path d="M51.8388 21.5771V10.3771H50.5588V15.4331H43.8068V10.3771H42.5268V21.5771H43.8068V16.6491H50.5588V21.5771H51.8388ZM58.4779 13.1131C55.9819 13.1131 54.2059 14.8411 54.2059 17.3531C54.2059 19.8811 55.9819 21.6251 58.4779 21.6251C60.9739 21.6251 62.7499 19.8811 62.7499 17.3531C62.7499 14.8411 60.9739 13.1131 58.4779 13.1131ZM58.4779 14.2491C60.2379 14.2491 61.5019 15.5291 61.5019 17.3691C61.5019 19.2251 60.2379 20.5051 58.4779 20.5051C56.7179 20.5051 55.4539 19.2251 55.4539 17.3691C55.4539 15.5291 56.7179 14.2491 58.4779 14.2491ZM72.2566 13.1451H71.0086V17.2891C71.0086 19.0811 69.9846 20.3451 68.2406 20.3771C66.7846 20.3771 65.9046 19.4971 65.9046 18.0091V13.1451H64.6566V18.3451C64.6566 20.3771 65.8406 21.6251 67.8086 21.6251C69.3286 21.6091 70.4486 20.9851 71.0086 19.6731V21.5771H72.2566V13.1451ZM77.5439 13.0971C76.0079 13.0971 74.6159 13.7691 74.6159 15.3851C74.5999 18.3771 79.3199 17.3371 79.2719 19.3691C79.2559 20.2011 78.4559 20.5691 77.4639 20.5691C76.4719 20.5691 75.3839 20.1691 74.6639 19.4971L74.1839 20.4411C74.9839 21.2091 76.2159 21.6251 77.4159 21.6251C79.0319 21.6251 80.5039 20.8891 80.5039 19.2251C80.5039 16.2011 75.7999 17.1611 75.7999 15.2891C75.7999 14.5051 76.5199 14.1691 77.4639 14.1691C78.2479 14.1691 79.0959 14.4411 79.7519 14.8571L80.2319 13.8651C79.5279 13.3851 78.5519 13.0971 77.5439 13.0971ZM85.8819 13.1131C83.4339 13.1131 81.7059 14.8571 81.7059 17.3691C81.7059 19.8811 83.4179 21.6251 85.8979 21.6251C87.3059 21.6251 88.4899 21.1131 89.2899 20.2171L88.6019 19.4811C87.9459 20.1691 87.0339 20.5371 85.9939 20.5371C84.3619 20.5371 83.1619 19.4971 82.9379 17.8491H89.8179C89.9459 14.9851 88.6019 13.0971 85.8819 13.1131ZM82.9379 16.8251C83.1299 15.2251 84.2819 14.1851 85.8819 14.1851C87.5299 14.1851 88.6179 15.2091 88.6979 16.8251H82.9379ZM97.8068 20.3611V10.3771H96.5268V21.5771H102.719V20.3611H97.8068ZM105.224 9.86515C104.76 9.86515 104.408 10.2331 104.408 10.7291C104.408 11.2251 104.76 11.5931 105.224 11.5931C105.688 11.5931 106.04 11.2251 106.04 10.7291C106.04 10.2331 105.688 9.86515 105.224 9.86515ZM105.848 21.5771V13.1451H104.616V21.5771H105.848ZM111.122 13.0971C109.586 13.0971 108.194 13.7691 108.194 15.3851C108.178 18.3771 112.898 17.3371 112.85 19.3691C112.834 20.2011 112.034 20.5691 111.042 20.5691C110.05 20.5691 108.962 20.1691 108.242 19.4971L107.762 20.4411C108.562 21.2091 109.794 21.6251 110.994 21.6251C112.61 21.6251 114.082 20.8891 114.082 19.2251C114.082 16.2011 109.378 17.1611 109.378 15.2891C109.378 14.5051 110.098 14.1691 111.042 14.1691C111.826 14.1691 112.674 14.4411 113.33 14.8571L113.81 13.8651C113.106 13.3851 112.13 13.0971 111.122 13.0971ZM120.132 19.9931C119.668 20.2811 119.22 20.4251 118.788 20.4251C118.068 20.4251 117.668 20.0411 117.668 19.0171V14.4251H120.34V13.4011L117.668 13.4171V11.1931H116.436V13.4171H115.22V14.4251H116.436V19.2411C116.436 20.9051 117.348 21.6411 118.58 21.6411C119.252 21.6251 119.892 21.4011 120.484 21.0011L120.132 19.9931ZM122.974 9.86515C122.51 9.86515 122.158 10.2331 122.158 10.7291C122.158 11.2251 122.51 11.5931 122.974 11.5931C123.438 11.5931 123.79 11.2251 123.79 10.7291C123.79 10.2331 123.438 9.86515 122.974 9.86515ZM123.598 21.5771V13.1451H122.366V21.5771H123.598ZM131.144 13.0971C129.608 13.1131 128.472 13.7211 127.88 15.0011V13.1451H126.632V21.5771H127.88V17.0491C128.024 15.4491 129.048 14.3611 130.712 14.3451C132.2 14.3451 133.096 15.2251 133.096 16.7131V21.5771H134.344V16.3771C134.344 14.3451 133.16 13.0971 131.144 13.0971ZM144.476 13.1451H143.228V14.8571C142.62 13.7371 141.532 13.0971 140.092 13.0971C137.836 13.1131 136.284 14.7771 136.284 17.1291C136.284 19.5291 137.852 21.2091 140.124 21.2091C141.548 21.2091 142.636 20.5691 143.228 19.4491V20.7291C143.228 22.4891 142.028 23.6091 140.188 23.6091C139.068 23.5931 138.188 23.2251 137.356 22.5371L136.78 23.4971C137.804 24.2651 138.908 24.6971 140.236 24.7131C142.796 24.7131 144.476 23.1611 144.476 20.6971V13.1451ZM140.348 20.1531C138.652 20.1531 137.468 18.9051 137.452 17.1771C137.468 15.4331 138.652 14.1851 140.348 14.1851C142.028 14.1851 143.228 15.4171 143.228 17.1771C143.228 18.9051 142.028 20.1531 140.348 20.1531Z" fill="#190E2C"/>
</svg>
