<svg width="18" height="18" viewBox="0 0 18 18" fill="none" xmlns="http://www.w3.org/2000/svg">
<path d="M8.09324 1.46808L5.93952 5.83798L1.11448 6.54153C0.919563 6.57016 0.736533 6.65271 0.586049 6.77985C0.435564 6.90699 0.323617 7.07367 0.262843 7.26107C0.20207 7.44847 0.19489 7.64912 0.242115 7.84038C0.28934 8.03165 0.389088 8.2059 0.530101 8.34347L4.01913 11.7435L3.1964 16.5463C3.1634 16.7401 3.18522 16.9394 3.25941 17.1215C3.3336 17.3036 3.45719 17.4614 3.61626 17.577C3.77533 17.6926 3.96355 17.7615 4.15968 17.7759C4.3558 17.7902 4.55204 17.7495 4.72626 17.6583L9.04016 15.3904L13.3548 17.6583C13.5291 17.7493 13.7253 17.7899 13.9215 17.7755C14.1176 17.7611 14.3058 17.6922 14.4649 17.5767C14.624 17.4611 14.7478 17.3034 14.8222 17.1214C14.8966 16.9394 14.9187 16.7402 14.8861 16.5463L14.0612 11.7435L17.5502 8.34347C17.6912 8.2059 17.791 8.03165 17.8382 7.84038C17.8854 7.64912 17.8783 7.44847 17.8175 7.26107C17.7567 7.07367 17.6448 6.90699 17.4943 6.77985C17.3438 6.65271 17.1608 6.57016 16.9658 6.54153L12.1437 5.8387L9.98995 1.4688C9.90242 1.29239 9.76736 1.14392 9.6 1.04013C9.43263 0.936341 9.23961 0.881348 9.04268 0.881348C8.84574 0.881348 8.65272 0.936341 8.48535 1.04013C8.31799 1.14392 8.18293 1.29239 8.0954 1.4688L8.09324 1.46808Z" fill="url(#paint0_linear_750_3912)"/>
<defs>
<linearGradient id="paint0_linear_750_3912" x1="0.211304" y1="0.881348" x2="17.0923" y2="18.522" gradientUnits="userSpaceOnUse">
<stop stop-color="#13DE82"/>
<stop offset="1" stop-color="#0AB68B"/>
</linearGradient>
</defs>
</svg>
