<svg width="26" height="23" viewBox="0 0 26 23" fill="none" xmlns="http://www.w3.org/2000/svg">
<path d="M23.4093 11.1354H19.5096V8.01539C19.5104 7.18814 19.8393 6.39499 20.4243 5.81004C21.0093 5.22509 21.8024 4.89613 22.6297 4.89537H23.0195C23.1733 4.89575 23.3256 4.86574 23.4677 4.80706C23.6099 4.74839 23.739 4.66221 23.8478 4.55347C23.9565 4.44473 24.0427 4.31558 24.1014 4.17344C24.16 4.03129 24.19 3.87896 24.1897 3.72518V1.38552C24.19 1.23175 24.16 1.07941 24.1014 0.937264C24.0427 0.795119 23.9565 0.665968 23.8478 0.557231C23.739 0.448493 23.6099 0.362313 23.4677 0.303639C23.3256 0.244966 23.1733 0.214957 23.0195 0.215336H22.6297C21.6053 0.215053 20.5908 0.416614 19.6444 0.808503C18.6979 1.20039 17.8379 1.77493 17.1136 2.49929C16.3892 3.22364 15.8147 4.08363 15.4228 5.0301C15.0309 5.97658 14.8293 6.99099 14.8296 8.01539V19.7173C14.8298 20.3377 15.0763 20.9327 15.5151 21.3714C15.9538 21.8102 16.5488 22.0567 17.1693 22.0569H23.4093C24.0298 22.0567 24.6247 21.8102 25.0635 21.3714C25.5022 20.9327 25.7488 20.3377 25.749 19.7173V13.4751C25.7488 12.8546 25.5022 12.2596 25.0635 11.8209C24.6247 11.3822 24.0298 11.1356 23.4093 11.1354ZM9.36992 11.1354H5.47025V8.01539C5.47101 7.18814 5.79997 6.39499 6.38493 5.81004C6.96988 5.22509 7.76303 4.89613 8.59027 4.89537H8.9801C9.13387 4.89575 9.28621 4.86574 9.42836 4.80706C9.5705 4.74839 9.69965 4.66221 9.80839 4.55347C9.91713 4.44473 10.0033 4.31558 10.062 4.17344C10.1207 4.03129 10.1507 3.87896 10.1503 3.72518V1.38552C10.1507 1.23175 10.1207 1.07941 10.062 0.937264C10.0033 0.795119 9.91713 0.665968 9.80839 0.557231C9.69965 0.448493 9.5705 0.362313 9.42836 0.303639C9.28621 0.244966 9.13387 0.214957 8.9801 0.215336H8.59027C7.56588 0.215053 6.55146 0.416614 5.60499 0.808503C4.65852 1.20039 3.79853 1.77493 3.07417 2.49929C2.34982 3.22364 1.77528 4.08363 1.38339 5.0301C0.991501 5.97658 0.789939 6.99099 0.790222 8.01539V19.7173C0.790413 20.3377 1.03697 20.9327 1.4757 21.3714C1.91443 21.8102 2.50942 22.0567 3.12988 22.0569H9.36992C9.99038 22.0567 10.5854 21.8102 11.0241 21.3714C11.4628 20.9327 11.7094 20.3377 11.7096 19.7173V13.4751C11.7094 12.8546 11.4628 12.2596 11.0241 11.8209C10.5854 11.3822 9.99038 11.1356 9.36992 11.1354Z" fill="black"/>
</svg>
