<svg width="24" height="24" viewBox="0 0 24 24" fill="none" xmlns="http://www.w3.org/2000/svg">
<path fill-rule="evenodd" clip-rule="evenodd" d="M7.13957 0.738184C8.36144 0.681934 8.75102 0.669434 11.8635 0.669434C14.976 0.669434 15.3656 0.682975 16.5864 0.738184C17.8073 0.793392 18.6406 0.988184 19.3698 1.27048C20.1333 1.55902 20.826 2.01006 21.3989 2.59339C21.9823 3.16527 22.4323 3.85693 22.7198 4.62152C23.0031 5.35068 23.1969 6.18402 23.2531 7.40277C23.3094 8.62673 23.3219 9.01631 23.3219 12.1278C23.3219 15.2403 23.3083 15.6298 23.2531 16.8517C23.1979 18.0705 23.0031 18.9038 22.7198 19.633C22.4323 20.3977 21.9815 21.0905 21.3989 21.6632C20.826 22.2465 20.1333 22.6965 19.3698 22.984C18.6406 23.2674 17.8073 23.4611 16.5885 23.5173C15.3656 23.5736 14.976 23.5861 11.8635 23.5861C8.75102 23.5861 8.36144 23.5726 7.13957 23.5173C5.92082 23.4621 5.08748 23.2674 4.35832 22.984C3.59365 22.6965 2.90084 22.2457 2.32811 21.6632C1.74517 21.091 1.29406 20.3985 1.00623 19.634C0.723941 18.9048 0.530191 18.0715 0.473941 16.8528C0.417691 15.6288 0.405191 15.2392 0.405191 12.1278C0.405191 9.01527 0.418733 8.62568 0.473941 7.40485C0.52915 6.18402 0.723941 5.35068 1.00623 4.62152C1.29449 3.85702 1.74594 3.16455 2.32915 2.59235C2.90107 2.00954 3.59318 1.55844 4.35727 1.27048C5.08644 0.988184 5.91978 0.794434 7.13852 0.738184H7.13957ZM16.4937 2.80068C15.2854 2.74548 14.9229 2.73402 11.8635 2.73402C8.80415 2.73402 8.44165 2.74548 7.23332 2.80068C6.11561 2.85173 5.50936 3.03818 5.10519 3.19548C4.57082 3.40381 4.18852 3.65068 3.78748 4.05173C3.40732 4.42157 3.11475 4.87181 2.93123 5.36943C2.77394 5.7736 2.58748 6.37985 2.53644 7.49756C2.48123 8.70589 2.46977 9.06839 2.46977 12.1278C2.46977 15.1871 2.48123 15.5496 2.53644 16.758C2.58748 17.8757 2.77394 18.4819 2.93123 18.8861C3.11457 19.383 3.40727 19.834 3.78748 20.2038C4.15727 20.584 4.60832 20.8767 5.10519 21.0601C5.50936 21.2174 6.11561 21.4038 7.23332 21.4548C8.44165 21.5101 8.80311 21.5215 11.8635 21.5215C14.9239 21.5215 15.2854 21.5101 16.4937 21.4548C17.6114 21.4038 18.2177 21.2174 18.6219 21.0601C19.1562 20.8517 19.5385 20.6048 19.9396 20.2038C20.3198 19.834 20.6125 19.383 20.7958 18.8861C20.9531 18.4819 21.1396 17.8757 21.1906 16.758C21.2458 15.5496 21.2573 15.1871 21.2573 12.1278C21.2573 9.06839 21.2458 8.70589 21.1906 7.49756C21.1396 6.37985 20.9531 5.7736 20.7958 5.36943C20.5875 4.83506 20.3406 4.45277 19.9396 4.05173C19.5697 3.67159 19.1195 3.37903 18.6219 3.19548C18.2177 3.03818 17.6114 2.85173 16.4937 2.80068ZM10.4 15.6601C11.2173 16.0003 12.1275 16.0462 12.9749 15.79C13.8224 15.5337 14.5546 14.9912 15.0465 14.2551C15.5383 13.519 15.7594 12.6349 15.6719 11.7539C15.5844 10.8729 15.1937 10.0496 14.5666 9.42464C14.1669 9.02514 13.6835 8.71924 13.1514 8.52896C12.6192 8.33869 12.0515 8.26877 11.489 8.32424C10.9266 8.37972 10.3835 8.5592 9.89874 8.84978C9.414 9.14035 8.99972 9.53479 8.68571 10.0047C8.37171 10.4746 8.1658 11.0083 8.08281 11.5673C7.99982 12.1263 8.04181 12.6968 8.20575 13.2377C8.3697 13.7785 8.65153 14.2763 9.03094 14.6952C9.41036 15.1141 9.87792 15.4436 10.4 15.6601ZM7.69894 7.96318C8.24584 7.41628 8.89511 6.98246 9.60967 6.68648C10.3242 6.3905 11.0901 6.23816 11.8635 6.23816C12.637 6.23816 13.4028 6.3905 14.1174 6.68648C14.8319 6.98246 15.4812 7.41628 16.0281 7.96318C16.575 8.51008 17.0088 9.15935 17.3048 9.87391C17.6008 10.5885 17.7531 11.3543 17.7531 12.1278C17.7531 12.9012 17.6008 13.6671 17.3048 14.3816C17.0088 15.0962 16.575 15.7454 16.0281 16.2923C14.9236 17.3969 13.4255 18.0174 11.8635 18.0174C10.3015 18.0174 8.80346 17.3969 7.69894 16.2923C6.59442 15.1878 5.97391 13.6898 5.97391 12.1278C5.97391 10.5657 6.59442 9.0677 7.69894 7.96318ZM19.0594 7.11527C19.1949 6.98742 19.3034 6.83368 19.3784 6.66316C19.4535 6.49263 19.4935 6.30878 19.4963 6.12249C19.499 5.9362 19.4643 5.75125 19.3942 5.57861C19.3242 5.40597 19.2202 5.24913 19.0885 5.11739C18.9567 4.98565 18.7999 4.88168 18.6273 4.81164C18.4546 4.7416 18.2697 4.70691 18.0834 4.70962C17.8971 4.71234 17.7132 4.75241 17.5427 4.82745C17.3722 4.90249 17.2185 5.01099 17.0906 5.14652C16.842 5.41009 16.7058 5.76018 16.7111 6.12249C16.7164 6.48479 16.8627 6.83077 17.1189 7.08698C17.3751 7.34319 17.7211 7.48946 18.0834 7.49474C18.4457 7.50003 18.7958 7.3639 19.0594 7.11527Z" fill="#190E2C"/>
</svg>
