<svg width="24" height="24" viewBox="0 0 24 24" fill="none" xmlns="http://www.w3.org/2000/svg">
<path fill-rule="evenodd" clip-rule="evenodd" d="M0.738198 2.58402C0.738198 2.07624 0.939912 1.58926 1.29897 1.2302C1.65802 0.871151 2.145 0.669436 2.65278 0.669436H21.7382C21.9898 0.669025 22.2391 0.718252 22.4717 0.814297C22.7043 0.910343 22.9156 1.05132 23.0937 1.22916C23.2717 1.407 23.4129 1.61821 23.5092 1.8507C23.6055 2.08318 23.655 2.33238 23.6549 2.58402V21.6694C23.6551 21.9211 23.6058 22.1704 23.5096 22.403C23.4135 22.6356 23.2724 22.8469 23.0945 23.025C22.9165 23.203 22.7053 23.3442 22.4727 23.4405C22.2402 23.5367 21.9909 23.5862 21.7392 23.5861H2.65278C2.40127 23.5861 2.15222 23.5365 1.91986 23.4403C1.68751 23.344 1.4764 23.2029 1.2986 23.025C1.1208 22.8471 0.979793 22.6359 0.883638 22.4035C0.787482 22.1711 0.738061 21.922 0.738198 21.6705V2.58402ZM9.80903 9.40694H12.9122V10.9653C13.3601 10.0694 14.5059 9.26319 16.2278 9.26319C19.5288 9.26319 20.3111 11.0476 20.3111 14.3215V20.3861H16.9705V15.0674C16.9705 13.2028 16.5226 12.1507 15.3851 12.1507C13.8069 12.1507 13.1507 13.2851 13.1507 15.0674V20.3861H9.80903V9.40694ZM4.07986 20.2434H7.42153V9.26319H4.07986V20.2424V20.2434ZM7.89966 5.68194C7.90596 5.96805 7.85504 6.25255 7.74991 6.51872C7.64477 6.7849 7.48752 7.02739 7.2874 7.23197C7.08727 7.43655 6.8483 7.59909 6.58451 7.71007C6.32071 7.82104 6.03741 7.8782 5.75122 7.8782C5.46503 7.8782 5.18173 7.82104 4.91793 7.71007C4.65414 7.59909 4.41516 7.43655 4.21504 7.23197C4.01492 7.02739 3.85767 6.7849 3.75253 6.51872C3.64739 6.25255 3.59648 5.96805 3.60278 5.68194C3.61515 5.12033 3.84693 4.58589 4.2485 4.19307C4.65006 3.80025 5.18947 3.58029 5.75122 3.58029C6.31296 3.58029 6.85238 3.80025 7.25394 4.19307C7.65551 4.58589 7.88729 5.12033 7.89966 5.68194Z" fill="#190E2C"/>
</svg>
