<svg width="34" height="30" viewBox="0 0 34 30" fill="none" xmlns="http://www.w3.org/2000/svg">
<path d="M7.15173 29.5274C6.85764 29.768 6.54376 29.7814 6.21009 29.5675C5.87535 29.3536 5.77483 29.0595 5.90851 28.6852L8.91632 18.8597L1.09601 13.2451C0.775172 13.0312 0.675179 12.7371 0.796027 12.3628C0.915804 11.9885 1.16285 11.8013 1.53715 11.8013H11.2424L14.3304 1.53467C14.3839 1.32078 14.4844 1.17373 14.632 1.09352C14.7785 1.01331 14.9319 0.97321 15.0924 0.97321C15.2528 0.97321 15.4068 1.01331 15.5544 1.09352C15.7009 1.17373 15.8009 1.32078 15.8543 1.53467L18.9424 11.8013H28.6476C29.0219 11.8013 29.2694 11.9885 29.3903 12.3628C29.5101 12.7371 29.4095 13.0312 29.0887 13.2451L21.2684 18.8597L24.2762 28.6852C24.4099 29.0595 24.3099 29.3536 23.9762 29.5675C23.6415 29.7814 23.3271 29.768 23.033 29.5274L15.0924 23.5117L7.15173 29.5274ZM11.2424 22.469L15.0924 19.5013L18.9424 22.469L17.4986 17.5763L21.108 15.0097H16.6163L15.0924 10.0368L13.5684 15.0097H9.07673L12.6861 17.5763L11.2424 22.469ZM29.6903 29.5274L27.3241 27.7227L24.958 20.143L29.9309 16.6138H32.9387C33.313 16.6138 33.567 16.801 33.7007 17.1753C33.8344 17.5496 33.7408 17.8437 33.42 18.0576L28.7278 21.4263L30.9736 28.6451C31.1073 29.0194 31.0003 29.3199 30.6528 29.5466C30.3052 29.7744 29.9844 29.768 29.6903 29.5274ZM21.3486 8.593L20.1455 4.50238L21.0278 1.53467C21.0812 1.32078 21.1812 1.16678 21.3278 1.07267C21.4753 0.979627 21.6293 0.933105 21.7898 0.933105C21.9502 0.933105 22.1042 0.986578 22.2518 1.09352C22.3983 1.20047 22.4983 1.34752 22.5517 1.53467L24.7174 8.593H21.3486Z" fill="#FFA219"/>
</svg>
