<svg width="39" height="40" viewBox="0 0 39 40" fill="none" xmlns="http://www.w3.org/2000/svg">
<path d="M10.1517 34.5274C9.85764 34.768 9.54376 34.7814 9.21009 34.5675C8.87535 34.3536 8.77483 34.0595 8.90851 33.6852L11.9163 23.8597L4.09601 18.2451C3.77517 18.0312 3.67518 17.7371 3.79603 17.3628C3.9158 16.9885 4.16285 16.8013 4.53715 16.8013H14.2424L17.3304 6.53467C17.3839 6.32078 17.4844 6.17373 17.632 6.09352C17.7785 6.01331 17.9319 5.97321 18.0924 5.97321C18.2528 5.97321 18.4068 6.01331 18.5544 6.09352C18.7009 6.17373 18.8009 6.32078 18.8543 6.53467L21.9424 16.8013H31.6476C32.0219 16.8013 32.2694 16.9885 32.3903 17.3628C32.5101 17.7371 32.4095 18.0312 32.0887 18.2451L24.2684 23.8597L27.2762 33.6852C27.4099 34.0595 27.3099 34.3536 26.9762 34.5675C26.6415 34.7814 26.3271 34.768 26.033 34.5274L18.0924 28.5117L10.1517 34.5274ZM14.2424 27.469L18.0924 24.5013L21.9424 27.469L20.4986 22.5763L24.108 20.0097H19.6163L18.0924 15.0368L16.5684 20.0097H12.0767L15.6861 22.5763L14.2424 27.469ZM32.6903 34.5274L30.3241 32.7227L27.958 25.143L32.9309 21.6138H35.9387C36.313 21.6138 36.567 21.801 36.7007 22.1753C36.8344 22.5496 36.7408 22.8437 36.42 23.0576L31.7278 26.4263L33.9736 33.6451C34.1073 34.0194 34.0003 34.3199 33.6528 34.5466C33.3052 34.7744 32.9844 34.768 32.6903 34.5274ZM24.3486 13.593L23.1455 9.50238L24.0278 6.53467C24.0812 6.32078 24.1812 6.16678 24.3278 6.07267C24.4753 5.97963 24.6293 5.93311 24.7898 5.93311C24.9502 5.93311 25.1042 5.98658 25.2518 6.09352C25.3983 6.20047 25.4983 6.34752 25.5517 6.53467L27.7174 13.593H24.3486Z" fill="#FFA219"/>
</svg>
