<svg width="24" height="20" viewBox="0 0 24 20" fill="none" xmlns="http://www.w3.org/2000/svg">
<path d="M23.6577 2.77049C22.7879 3.15591 21.8535 3.41633 20.8712 3.53404C21.8847 2.92757 22.643 1.97306 23.0045 0.848619C22.0523 1.41423 21.0101 1.81236 19.9233 2.0257C19.1924 1.24535 18.2244 0.728126 17.1695 0.554322C16.1145 0.380517 15.0317 0.559861 14.0892 1.06451C13.1466 1.56915 12.397 2.37087 11.9568 3.34519C11.5166 4.3195 11.4103 5.4119 11.6545 6.45279C9.72505 6.35591 7.83749 5.8544 6.11436 4.98081C4.39123 4.10722 2.87104 2.88108 1.65246 1.38195C1.23579 2.1007 0.996208 2.93404 0.996208 3.82154C0.995743 4.62049 1.19249 5.40721 1.569 6.11188C1.9455 6.81656 2.49013 7.41741 3.15454 7.86112C2.384 7.8366 1.63045 7.62839 0.956625 7.25383V7.31633C0.956547 8.43689 1.34416 9.52297 2.05369 10.3903C2.76322 11.2576 3.75097 11.8527 4.84933 12.0747C4.13452 12.2681 3.3851 12.2966 2.65767 12.158C2.96756 13.1222 3.5712 13.9653 4.38409 14.5694C5.19698 15.1734 6.17841 15.5082 7.191 15.5267C5.47208 16.8761 3.34922 17.6081 1.16392 17.6049C0.776813 17.605 0.390037 17.5824 0.00558281 17.5372C2.22379 18.9634 4.80594 19.7203 7.44308 19.7174C16.3702 19.7174 21.2504 12.3236 21.2504 5.91112C21.2504 5.70279 21.2452 5.49237 21.2358 5.28404C22.1851 4.59755 23.0044 3.74747 23.6556 2.77362L23.6577 2.77049Z" fill="#190E2C"/>
</svg>
