<svg width="36" height="36" viewBox="0 0 36 36" fill="none" xmlns="http://www.w3.org/2000/svg">
<path d="M17.7749 0.451538C8.05737 0.451538 0.170654 8.33825 0.170654 18.0558C0.170654 27.7734 8.05737 35.6601 17.7749 35.6601C27.4925 35.6601 35.3792 27.7734 35.3792 18.0558C35.3792 8.33825 27.4925 0.451538 17.7749 0.451538ZM17.7749 7.49325C21.1726 7.49325 23.9364 10.2571 23.9364 13.6547C23.9364 17.0524 21.1726 19.8162 17.7749 19.8162C14.3773 19.8162 11.6134 17.0524 11.6134 13.6547C11.6134 10.2571 14.3773 7.49325 17.7749 7.49325ZM17.7749 32.1392C14.2013 32.1392 9.97624 30.6957 6.96591 27.0692C10.0495 24.6499 13.8556 23.335 17.7749 23.335C21.6943 23.335 25.5004 24.6499 28.584 27.0692C25.5736 30.6957 21.3486 32.1392 17.7749 32.1392Z" fill="black"/>
</svg>
